<?xml version="1.0" encoding="utf-8"?>
<!-- Generator: Adobe Illustrator 19.2.0, SVG Export Plug-In . SVG Version: 6.00 Build 0)  -->
<svg version="1.1" id="Calque_1" xmlns="http://www.w3.org/2000/svg" xmlns:xlink="http://www.w3.org/1999/xlink" x="0px" y="0px"
	 viewBox="0 0 881 393.4" style="enable-background:new 0 0 881 393.4;" xml:space="preserve">
<g>
	<g>
		<polygon points="87,94.7 87,66.3 116.4,66.3 148.6,98.1 148.6,63.6 117.1,32.5 85,32.5 52.8,64.7 52.8,96.5 84.9,128.5 
			115.4,128.5 115.4,172.6 78.2,172.6 31.6,125.9 0,125.9 0,159.5 30.4,159.5 77.1,206.3 116.9,206.3 148.9,174.3 148.9,126.4 
			117.2,94.7 		"/>
		<polygon points="306.5,0 273.2,33.3 273.2,68.3 306.4,35 		"/>
		<path d="M228.4,206.9l31.8-31.9v-61.5h12.7v92.1l32.7,32.7l69.7-69.8l69.3,69.4h63.3l62.8-62.9v-61.5h28.4v93.1h33.2l30.9-30.9
			h31.2l30.5-30.5l62.1,62.2l31.3-31.3v-32l-1.7-1.7l-29.9,29.9l-29-29.1l62-62.1l-32.4-32.4h-32.2l-31.5,31.5v31.3l-28.2,28.3V81.5
			l30.2-30.3l-1.7-1.7h-28.9V18.6h-33.9v123.9l-28.1,28.1v-58.9l-32.1-32.1h-64v93.8l-28.6,28.6v-60.3h-64.1l-30.5,30.5l-21.5-21.5
			l38-38l-1.5-1.5h-31l-22.7,22.8L353,111.8h-30.4l-2,2.1l37,37.1l-51,51.1V79.7h-48.5l-30.9,31h-31.2l-31.7,31.8v32.6l31.8,31.9
			H228.4z M757.3,82.4H784l-27,27L757.3,82.4z M446.5,175.8h28.2v28h-28.4L446.5,175.8z M198,144.6h28.2v28h-28.4L198,144.6z"/>
		<polygon points="445.3,266.3 381.7,266.3 381.7,329.3 353.4,357.6 353.4,297.4 320,297.4 257.9,359.6 228.6,359.6 228.6,331.5 
			258.7,331.2 258.7,297.4 227.2,297.4 195.1,329.5 195.1,361.4 227,393.4 259.2,393.4 319.5,333 319.5,393.3 352.5,393.3 
			383.4,362.4 415.4,362.4 415.4,300.1 445.3,300.1 		"/>
		<polygon points="353.2,254.6 353.3,219.6 320,253 320,287.9 		"/>
		<path d="M849,297.3l-61.6,61.7l-29.7-29.8v-53.4l30.6-30.7l-2.1-2.1h-28.9v-22.1h-33.8v107.5h-28.4v-62h-33.3l-28.9,28.9v-27.7
			h-33.5v61.1h-28.4v-61.1h-33.8V329l-30.3,30.4h-29.4v-28.2h29.9v-33.8h-31.6L444.1,329v32.4l32,32h31.7l31-31.1h62.2l60.5-60.5
			v60.4h93.6l31,31h63.3l31.6-31.7v-32.2L849,297.3z M848,359.6h-26.7l27-27L848,359.6z"/>
		<polygon points="661.9,256.5 695.1,223.2 695.2,188.2 661.9,221.6 		"/>
	</g>
</g>
</svg>
